PathFileType	4	(X/Y/Z)	SUBJ32_4_walk_RCNL2025.trc
DataRate	CameraRate	NumFrames	NumMarkers	Units	OrigDataRate	OrigDataStartFrame	OrigNumFrames
100	100	5	25	mm	100	69	273
Frame#	Time	R_Shoulder			L_Shoulder			C7			J_Notch			R_Elbow			L_Elbow			R_Wrist			L_Wrist			R_Asis			L_Asis			Sacral			Thoracic			Sternum			R_Thigh_Lateral			R_Knee_Lateral			R_Shank_Lateral			R_Ankle_Lateral			R_Heel			R_Toe			L_Thigh_Lateral			L_Knee_Lateral			L_Shank_Lateral			L_Ankle_Lateral			L_Heel			L_Toe		
		X1	Y1	Z1	X2	Y2	Z2	X3	Y3	Z3	X4	Y4	Z4	X5	Y5	Z5	X6	Y6	Z6	X7	Y7	Z7	X8	Y8	Z8	X9	Y9	Z9	X10	Y10	Z10	X11	Y11	Z11	X12	Y12	Z12	X13	Y13	Z13	X14	Y14	Z14	X15	Y15	Z15	X16	Y16	Z16	X17	Y17	Z17	X18	Y18	Z18	X19	Y19	Z19	X20	Y20	Z20	X21	Y21	Z21	X22	Y22	Z22	X23	Y23	Z23	X24	Y24	Z24	X25	Y25	Z25
69	0.68000000	-832.035095	1338.459106	369.668976	-861.105286	1337.636963	1.958729	-869.599915	1414.492310	200.777252	-749.762329	1309.696899	184.508408	-837.501648	1011.309753	496.694855	-975.635986	1026.598145	-69.699028	-675.437408	821.173920	492.807388	-955.529694	766.084015	-80.030437	-789.533997	880.541748	308.526550	-764.233948	865.201538	58.937634	-974.078735	923.734985	164.357147	-975.093811	1182.517944	188.223404	-683.396973	1084.450562	189.805664	-960.454285	535.914917	369.518921	-980.537231	439.524231	320.667999	-1039.596680	286.398224	382.138428	-1111.199707	76.392395	261.594971	-1162.785767	78.694290	207.184982	-986.747375	44.004105	235.610092	-755.299194	529.209595	-37.439232	-716.098328	451.264954	15.077602	-649.688599	242.106018	-14.873449	-569.713867	63.286434	68.828827	-610.611633	40.433807	122.229286	-434.313049	89.842003	83.826134
70	0.69000000	-820.689697	1337.696899	367.922394	-850.139954	1336.262817	0.304539	-858.400024	1413.382690	198.869827	-738.403625	1308.704712	182.702332	-826.737610	1011.015991	496.028381	-964.782349	1025.093750	-70.579056	-664.143707	821.265839	492.735855	-944.466248	764.554321	-80.548695	-777.911682	879.459839	307.991089	-752.130066	864.120056	58.426407	-962.212952	922.553406	163.465729	-963.524048	1181.122559	186.848465	-671.646606	1083.466675	188.504822	-951.219910	535.915466	369.845551	-972.009216	439.529968	321.258606	-1033.387817	287.391937	382.972290	-1109.829956	78.995827	262.805084	-1161.661743	82.568825	208.746216	-986.364197	44.010399	235.844604	-743.501892	527.805115	-37.414841	-703.614502	450.358459	15.132325	-636.873840	240.888412	-13.925024	-559.483826	62.075443	70.477936	-600.243408	39.275555	123.933891	-424.227173	89.277512	85.379517
71	0.70000000	-809.284180	1337.078857	366.069366	-839.050659	1334.930908	-1.471535	-847.104858	1412.412109	196.812439	-726.925781	1307.837524	180.795502	-816.122192	1010.840515	495.206604	-953.686951	1023.620972	-71.627670	-653.272858	821.243958	492.645554	-932.987549	763.073669	-81.236977	-766.062622	878.452637	307.341095	-739.940247	863.328003	57.804951	-950.192139	921.443787	162.609329	-951.846436	1179.863647	185.406830	-659.742004	1082.624023	187.104507	-941.407959	535.847412	370.200195	-962.837280	439.491821	321.917816	-1026.541016	288.443054	383.925842	-1108.214233	81.902344	264.170410	-1160.275391	86.915871	210.550674	-985.889648	44.041359	236.083496	-730.326355	527.324890	-37.541481	-690.505066	449.844574	14.973829	-624.894836	239.613022	-13.057121	-551.679871	60.398018	72.095833	-592.593811	38.335495	125.488571	-416.449371	86.561356	87.252914
72	0.71000000	-797.808777	1336.623657	364.120026	-827.835632	1333.652710	-3.363635	-835.712402	1411.615112	194.615707	-715.336182	1307.116211	178.792267	-805.657227	1010.796570	494.230865	-942.339355	1022.182007	-72.834778	-642.830872	821.116058	492.524918	-921.105469	761.644318	-82.095058	-753.995789	877.545105	306.572815	-727.666321	862.860291	57.101555	-938.023621	920.432007	161.795349	-940.075378	1178.792603	183.910110	-647.692749	1081.958984	185.608780	-930.992676	535.698120	370.541656	-952.959167	439.406738	322.607452	-1019.058899	289.569305	384.940552	-1106.280273	85.138237	265.620087	-1158.510620	91.789742	212.508743	-985.291443	44.099033	236.302109	-716.184448	527.672974	-37.800800	-677.116943	449.652954	14.608525	-613.747620	238.334412	-12.299779	-545.759460	58.506145	73.579170	-587.081787	37.785515	126.798180	-410.406403	82.093140	89.359825
73	0.72000000	-786.257568	1336.357544	362.091705	-816.492554	1332.451172	-5.358359	-824.220337	1411.034302	192.293320	-703.649719	1306.573364	176.703690	-795.338013	1010.901550	493.102692	-930.725586	1020.787537	-74.184677	-632.825104	820.890381	492.360687	-908.832611	760.276215	-83.121033	-741.725342	876.773560	305.683167	-715.311951	862.758057	56.342117	-925.725952	919.567139	161.028488	-928.224182	1177.962891	182.377274	-635.511902	1081.519653	184.023315	-919.946777	535.469666	370.826691	-942.305481	439.288239	323.291840	-1010.936584	290.805176	385.955139	-1103.928833	88.755058	267.083740	-1156.220337	97.254189	214.517181	-984.540527	44.168644	236.460693	-701.561707	528.695068	-38.178978	-663.782776	449.738251	14.029849	-603.363586	237.150009	-11.700373	-541.169189	56.670128	74.840775	-583.091309	37.737976	127.811928	-405.540070	76.440506	91.565483
